<?xml version="1.0" encoding="UTF-8"?>
<svg width="934" height="934" viewBox="0 0 934 934" fill="none" xmlns="http://www.w3.org/2000/svg">
<g clip-path="url(#clip0_1_2)">
<path d="M753.847 239.317H555.218C535.346 239.165 515.907 233.548 499.017 223.083C482.134 212.61 468.457 197.69 459.488 179.965L443.214 146.936C428.399 116.999 405.467 91.8319 377.028 74.3161C348.591 56.792 315.793 47.6248 282.396 47.8586H179.487C131.883 47.8586 86.2339 66.769 52.5723 100.431C18.9108 134.092 0 179.742 0 227.346V705.992C0 753.596 18.9104 799.245 52.5723 832.907C86.2339 866.568 131.883 885.479 179.487 885.479H753.846C801.45 885.479 847.1 866.569 880.761 832.907C914.423 799.245 933.333 753.596 933.333 705.992V418.812C933.333 371.208 914.423 325.551 880.761 291.889C847.1 258.236 801.45 239.325 753.846 239.325L753.847 239.317ZM861.54 705.984C861.54 734.542 850.194 761.937 830.001 782.129C809.801 802.33 782.414 813.676 753.847 813.676H179.488C150.922 813.676 123.536 802.33 103.335 782.129C83.1422 761.937 71.7961 734.542 71.7961 705.984V227.338C71.7961 198.78 83.1422 171.385 103.335 151.192C123.535 130.992 150.922 119.645 179.488 119.645H282.397C302.261 119.798 321.708 125.415 338.592 135.88C355.475 146.352 369.152 161.272 378.12 178.997L394.394 212.027C409.178 241.892 432.039 267.004 460.38 284.52C488.729 302.036 521.422 311.242 554.739 311.106H753.849C782.415 311.106 809.801 322.452 830.002 342.645C850.195 362.845 861.541 390.232 861.541 418.799L861.54 705.984Z" fill="black"/>
</g>
<defs>
<clipPath id="clip0_1_2">
<rect width="933.333" height="933.333" fill="white"/>
</clipPath>
</defs>
</svg>

